<svg width="21" height="20" viewBox="0 0 21 20" fill="none" xmlns="http://www.w3.org/2000/svg">
<path d="M12.7581 4.66671C13.572 4.82551 14.3201 5.22359 14.9065 5.80999C15.4929 6.39639 15.8909 7.14443 16.0497 7.95837M12.7581 1.33337C14.4491 1.52124 16.0261 2.27852 17.23 3.48088C18.4338 4.68324 19.1931 6.25922 19.3831 7.95004M18.5497 14.6V17.1C18.5507 17.3321 18.5032 17.5618 18.4102 17.7745C18.3172 17.9871 18.1808 18.178 18.0098 18.3349C17.8388 18.4918 17.6369 18.6113 17.417 18.6856C17.1972 18.76 16.9642 18.7876 16.7331 18.7667C14.1688 18.4881 11.7056 17.6118 9.54142 16.2084C7.52794 14.9289 5.82086 13.2219 4.54142 11.2084C3.13306 9.03438 2.25662 6.5592 1.98308 3.98337C1.96226 3.75293 1.98964 3.52067 2.0635 3.30139C2.13735 3.08211 2.25606 2.88061 2.41205 2.70972C2.56805 2.53883 2.75792 2.4023 2.96957 2.30881C3.18123 2.21532 3.41003 2.16693 3.64142 2.16671H6.14142C6.54584 2.16273 6.93791 2.30594 7.24455 2.56965C7.55119 2.83336 7.75148 3.19958 7.80808 3.60004C7.9136 4.4001 8.10929 5.18565 8.39142 5.94171C8.50354 6.23998 8.5278 6.56414 8.46134 6.87577C8.39488 7.18741 8.24047 7.47347 8.01642 7.70004L6.95808 8.75837C8.14438 10.8447 9.87179 12.5721 11.9581 13.7584L13.0164 12.7C13.243 12.476 13.529 12.3216 13.8407 12.2551C14.1523 12.1887 14.4765 12.2129 14.7747 12.325C15.5308 12.6072 16.3164 12.8029 17.1164 12.9084C17.5212 12.9655 17.8909 13.1694 18.1552 13.4813C18.4195 13.7932 18.5599 14.1914 18.5497 14.6Z" stroke="#FAFAFA" stroke-width="2" stroke-linecap="round" stroke-linejoin="round"/>
</svg>
