<svg width="81" height="80" viewBox="0 0 81 80" fill="none" xmlns="http://www.w3.org/2000/svg">
<path fill-rule="evenodd" clip-rule="evenodd" d="M69.0331 40C69.0331 55.9058 56.1389 68.8 40.2331 68.8C24.3273 68.8 11.4331 55.9058 11.4331 40C11.4331 24.0942 24.3273 11.2 40.2331 11.2C48.6146 11.2 56.1599 14.7804 61.423 20.4952L59.863 21.9503C54.9894 16.6528 47.999 13.3333 40.2333 13.3333C25.5057 13.3333 13.5666 25.2724 13.5666 40C13.5666 54.7276 25.5057 66.6667 40.2333 66.6667C54.9609 66.6667 66.8999 54.7276 66.8999 40C66.8999 35.902 65.9756 32.0199 64.3239 28.5508L65.9543 27.03C67.9237 30.928 69.0331 35.3344 69.0331 40Z" fill="#FAFAFA"/>
<path d="M21.1422 37.4026C22.1246 37.0653 24.7029 37.5776 36.3686 45.2142C36.5739 45.3486 36.8531 45.3329 37.0343 45.1675L65.5754 19.1101C66.0541 18.6731 66.7535 19.3014 66.3702 19.824L38.6683 57.5927C38.4649 57.8699 38.0569 57.8872 37.8309 57.6281L20.9853 38.3178C20.7455 38.043 20.7973 37.5211 21.1422 37.4026Z" fill="#FAFAFA" stroke="#FAFAFA" stroke-width="0.536797"/>
</svg>
