<svg width="80" height="80" viewBox="0 0 80 80" fill="none" xmlns="http://www.w3.org/2000/svg">
<path fill-rule="evenodd" clip-rule="evenodd" d="M12 24.2604H55.2V42.927H56.2667V29.0604C62.7229 29.0604 65.951 29.0604 68.4978 30.114C71.9013 31.522 74.6051 34.2258 76.0131 37.6293C77.0667 40.1761 77.0667 43.4042 77.0667 49.8604V51.4604H70.0943C70.1201 51.1977 70.1334 50.9308 70.1334 50.6604C70.1334 46.6839 67.268 43.4604 63.7334 43.4604C60.1988 43.4604 57.3334 46.6839 57.3334 50.6604C57.3334 50.9308 57.3466 51.1977 57.3725 51.4604H56.2667L45.6 51.4604L31.6943 51.4604C31.7201 51.1977 31.7334 50.9308 31.7334 50.6604C31.7334 46.6839 28.868 43.4604 25.3334 43.4604C21.7987 43.4604 18.9334 46.6839 18.9334 50.6604C18.9334 50.9308 18.9466 51.1977 18.9724 51.4604L12 51.4604V42.927H6.66677V40.7937H12V38.6604H9.33339V36.5271H12V35.4604H6.66677V33.327H12V31.1937H2.93335V29.0604H12V24.2604ZM26.1779 54.5939C28.7221 54.1892 30.6668 51.9852 30.6668 49.327C30.6668 46.3815 28.279 43.9937 25.3335 43.9937C22.388 43.9937 20.0002 46.3815 20.0002 49.327C20.0002 51.946 21.8878 54.124 24.3768 54.5748C20.4564 54.5313 16.2507 54.4718 11.7423 54.3936L11.7238 55.4605C57.8496 56.2604 72.3814 55.1067 73.6751 54.9219L73.5242 53.8655C73.076 53.9296 70.7642 54.1324 65.6158 54.3187C67.6324 53.5578 69.0667 51.6099 69.0667 49.327C69.0667 46.3815 66.6789 43.9937 63.7334 43.9937C60.7879 43.9937 58.4001 46.3815 58.4001 49.327C58.4001 51.7284 59.9871 53.7591 62.1696 54.4275C54.8006 54.6295 43.3162 54.7669 26.1779 54.5939ZM65.8664 31.1937C66.3534 31.1937 66.831 31.2345 67.2957 31.3129L73.7968 36.5702C74.1858 37.5467 74.3997 38.6119 74.3997 39.7271H57.3331V31.1937H65.8664ZM29.7128 34.2309C30.4139 32.9691 31.1743 32.0713 31.9943 31.5376C32.8198 31.0006 33.5489 30.8165 34.1815 30.9852C34.8142 31.1539 35.2264 31.4834 35.418 31.9739C35.6097 32.4643 35.5974 33.1152 35.381 33.9268C35.1657 34.734 34.7441 35.6754 34.1161 36.751C33.4881 37.8267 32.7856 38.6558 32.0087 39.2384C31.2318 39.821 30.5423 40.0321 29.9402 39.8715C29.3381 39.7109 28.9116 39.3823 28.6609 38.8855C28.4102 38.3886 28.3924 37.7366 28.6077 36.9295C28.8241 36.1179 29.1925 35.2184 29.7128 34.2309ZM30.7015 34.782C30.1489 35.7328 29.7923 36.6145 29.6317 37.4269C29.4767 38.2361 29.626 38.7012 30.0798 38.8222C30.5379 38.9444 31.0149 38.8028 31.5109 38.3977C32.0068 37.9925 32.5601 37.2497 33.1706 36.1694C33.8257 34.9748 34.2236 34.0084 34.3644 33.2701C34.5095 32.5331 34.3552 32.104 33.9014 31.983C33.4477 31.862 32.9651 32.0067 32.4537 32.4172C31.9424 32.8276 31.3583 33.6158 30.7015 34.782ZM36.4221 39.5774L37.5882 39.8884L37.1021 41.7113L38.3084 42.033L38.7945 40.2101L41.0061 40.7998L41.2384 39.9286L39.0269 39.3389L39.345 38.146L40.042 38.3318L40.4709 38.4462C41.2661 38.6583 41.9628 38.7196 42.5609 38.6303C43.1679 38.5433 43.6671 38.3223 44.0585 37.9672C44.4523 37.6033 44.7302 37.1175 44.8922 36.5098C45.1329 35.6073 45.0304 34.843 44.5848 34.217C44.1482 33.5932 43.3446 33.1253 42.174 32.8132L39.6541 32.1412L38.4103 36.8056L37.2442 36.4946L36.9726 37.5133L38.1387 37.8243L37.8206 39.0172L36.6545 38.7062L36.4221 39.5774ZM40.5683 37.3811L40.3136 37.3132L39.6166 37.1273L40.5888 33.4816L41.7951 33.8032C42.5904 34.0153 43.1364 34.3188 43.433 34.7138C43.7297 35.1087 43.797 35.61 43.635 36.2176C43.5111 36.6823 43.3106 37.0213 43.0336 37.2345C42.7566 37.4478 42.4105 37.5613 41.9953 37.575C41.589 37.591 41.1133 37.5264 40.5683 37.3811Z" fill="#FAFAFA"/>
</svg>
