<svg width="81" height="80" viewBox="0 0 81 80" fill="none" xmlns="http://www.w3.org/2000/svg">
<path d="M40.2695 42.3319L40.4648 17.7049L43.4404 17.8687L46.9075 18.4966L49.9923 19.6704L52.886 20.9808L40.2695 42.3319Z" fill="#FAFAFA" fill-opacity="0.5"/>
<path fill-rule="evenodd" clip-rule="evenodd" d="M36.2336 8.90597C36.2336 8.55289 36.5199 8.26666 36.873 8.26666H44.1277C44.4807 8.26666 44.767 8.55289 44.767 8.90597V13.0667H41.567V16.2885C46.7385 16.5004 51.5143 18.2465 55.4514 21.0838L56.6911 19.6016L55.2636 18.4078L56.6442 16.757C56.8707 16.4862 57.2739 16.4503 57.5448 16.6768L60.8462 19.438C61.117 19.6645 61.1529 20.0677 60.9264 20.3385L59.5458 21.9892L58.1185 20.7954L56.9216 22.2265C62.5321 26.9225 66.1004 33.9779 66.1004 41.8667C66.1004 56.0052 54.6389 67.4667 40.5004 67.4667C26.3619 67.4667 14.9004 56.0052 14.9004 41.8667C14.9004 33.9679 18.4777 26.9046 24.1006 22.2086L22.9187 20.7954L21.4913 21.9892L20.1107 20.3385C19.8842 20.0677 19.9201 19.6645 20.1909 19.438L23.4923 16.6768C23.7632 16.4503 24.1664 16.4862 24.3929 16.757L25.7735 18.4078L24.3461 19.6016L25.5721 21.0675C29.5048 18.2399 34.2721 16.5001 39.4336 16.2885V13.0667H36.2336V8.90597ZM39.4338 65.8139V62.1333H41.5672V65.8139C45.4884 65.6501 49.1712 64.5869 52.405 62.8302L51.4275 61.2723L52.3533 60.6914L53.3544 62.2869C60.0723 58.2417 64.6431 51.1207 65.0101 42.9333H60.7674L60.7674 40.8H65.0101C64.6187 32.0687 59.4465 24.5502 51.9878 20.6816L51.07 22.4438L50.1006 21.9389L51.0064 20.1999C48.1245 18.8636 44.9337 18.0601 41.5672 17.9194V22.1333H39.4338V17.9194C35.9805 18.0637 32.7121 18.9056 29.7724 20.3043L30.6238 21.9389L29.6544 22.4438L28.796 20.7957C25.2112 22.7006 22.1667 25.4532 19.9444 28.778L21.5942 29.8629L20.9937 30.7762L19.3579 29.7005C17.3768 32.9798 16.1722 36.7601 15.9911 40.8H20.2339V42.9333H15.9911C16.334 50.5837 20.3474 57.3031 26.3533 61.4518L27.419 59.9849L28.3033 60.6273L27.2671 62.0536C30.8052 64.2721 34.9646 65.6271 39.4338 65.8139ZM20.5417 51.4576L20.0825 50.4657L18.0988 51.3841L18.558 52.376L20.5417 51.4576ZM59.7934 52.6505L60.3188 51.6921L62.2356 52.743L61.7102 53.7014L59.7934 52.6505ZM59.1302 29.8629L59.7307 30.7762L61.5572 29.5751L60.9567 28.6619L59.1302 29.8629ZM42.6338 41.8667C42.6338 43.0449 41.6787 44 40.5005 44C39.3223 44 38.3672 43.0449 38.3672 41.8667C38.3672 40.6885 39.3223 39.7333 40.5005 39.7333C41.6787 39.7333 42.6338 40.6885 42.6338 41.8667Z" fill="#FAFAFA"/>
</svg>
